<svg xmlns="http://www.w3.org/2000/svg" xmlns:xlink="http://www.w3.org/1999/xlink" width="813" height="460" viewBox="0 0 813 460">
  <defs>
    <clipPath id="clip-Custom_Size_1">
      <rect width="813" height="460"/>
    </clipPath>
  </defs>
  <g id="Custom_Size_1" data-name="Custom Size – 1" clip-path="url(#clip-Custom_Size_1)">
    <g id="White" transform="translate(0.929 0.415)">
      <g id="Layer_1" data-name="Layer 1">
        <g id="Group_2" data-name="Group 2">
          <g id="Group_1" data-name="Group 1">
            <path id="Path_1" data-name="Path 1" d="M378.931,165.594v-.964c0-7.448-5.727-13.514-12.764-13.514h-.891V93.955h.891c7.037,0,12.764-6.062,12.764-13.514v-.964h52.625v.964c0,7.448,5.726,13.514,12.764,13.514h.891v57.161h-.891c-7.038,0-12.764,6.062-12.764,13.514v.964Zm1.734-83.887c-.568,7.449-6.3,13.526-13.312,14.131l-.295.024v53.355l.295.024c7.021.6,12.744,6.678,13.312,14.131l.024.3h49.1l.025-.3c.572-7.453,6.3-13.526,13.312-14.131l.294-.024V95.862l-.294-.024c-7.021-.6-12.744-6.678-13.312-14.131l-.025-.3h-49.1l-.024.3Z" fill="#fff"/>
            <path id="Path_2" data-name="Path 2" d="M425.7,192.614c-.081-.012-8.154-1.286-9.622-12.078l-.025-.19-.177-.068c-.282-.109-.573-.214-.871-.311a31.516,31.516,0,0,0-9.437-1.5c-.189,0-.294,0-.3,0h-.061s-.109,0-.306,0a31.628,31.628,0,0,0-9.429,1.5c-.3.1-.585.2-.871.311l-.178.068-.024.19c-.75,5.521-3.206,8.481-5.138,9.993a10.2,10.2,0,0,1-4.484,2.089l-1.154.158.061-1.162c.3-5.928,3.613-10.376,9.582-12.873l.556-.234-.5-.33c-3.665-2.436-8.456-3.67-14.24-3.67a49.277,49.277,0,0,0-6.21.419l-.1.008s-.1,0-.258,0a18.383,18.383,0,0,1-2.851-.234c-2.481-.395-5.808-1.447-7.558-4.218-1.327-2.1-1.52-4.8-.573-8.046l.242-.834.855.153a9.783,9.783,0,0,1,7.667,10.776l-.024.306.306.036a16.7,16.7,0,0,0,1.932.126h.185a51.468,51.468,0,0,1,6.413-.428c7,0,12.655,1.714,16.813,5.094l.129.1.161-.044a33.682,33.682,0,0,1,8.658-1.19c.182,0,.307,0,.371,0,.081,0,.206,0,.392,0a33.613,33.613,0,0,1,8.65,1.19l.161.044.129-.1c4.154-3.38,9.812-5.094,16.813-5.094A51.468,51.468,0,0,1,437.8,173l.032,0h.153a16.855,16.855,0,0,0,1.932-.125l.306-.037-.024-.306a9.783,9.783,0,0,1,7.667-10.776l.855-.153.241.835c.948,3.238.755,5.948-.576,8.045-1.755,2.771-5.078,3.823-7.558,4.218a18.383,18.383,0,0,1-2.851.234c-.161,0-.254,0-.266,0l-.1-.008a49.673,49.673,0,0,0-6.2-.415c-5.783,0-10.578,1.234-14.24,3.67l-.5.334.557.23c5.969,2.5,9.28,6.945,9.582,12.873l.06,1.162-1.161-.17ZM391.7,181.669a11.741,11.741,0,0,0-5.848,8.094l-.116.617.568-.266c3.916-1.831,5.364-5.86,5.876-8.1l.169-.734-.649.387Zm26.613.351c1.137,4.948,3.823,7.134,5.876,8.094l.568.266-.117-.617a11.748,11.748,0,0,0-5.847-8.094l-.646-.387.166.738Zm28.677-18c-1.939.775-5.154,2.848-4.891,8.014l.02.411.395-.121a7.339,7.339,0,0,0,4.242-2.892,7,7,0,0,0,.67-5.178l-.073-.383-.363.149Zm-83.923.238a7.011,7.011,0,0,0,.669,5.179,7.348,7.348,0,0,0,4.243,2.891l.395.121.02-.411c.262-5.166-2.952-7.239-4.892-8.014l-.363-.145-.072.379Z" fill="#fff"/>
            <path id="Path_3" data-name="Path 3" d="M447.856,83.324a9.783,9.783,0,0,1-7.666-10.776l.024-.306-.306-.036a16.616,16.616,0,0,0-1.932-.125h-.169l-.017,0a51.626,51.626,0,0,1-6.412.427c-7,0-12.659-1.714-16.813-5.093l-.129-.1-.161.044a34.2,34.2,0,0,1-8.647,1.194c-.185,0-.314,0-.379,0s-.209,0-.395,0a33.628,33.628,0,0,1-8.65-1.19l-.162-.044-.129.1c-4.157,3.379-9.812,5.093-16.813,5.093a51.638,51.638,0,0,1-6.412-.427l-.032,0H372.5a16.615,16.615,0,0,0-1.932.125l-.306.036.024.306a9.785,9.785,0,0,1-7.667,10.78l-.855.153-.242-.834c-.947-3.239-.754-5.945.573-8.046,1.754-2.771,5.077-3.823,7.558-4.218a18.384,18.384,0,0,1,2.851-.234c.161,0,.254,0,.266,0l.1.008a48.891,48.891,0,0,0,6.2.415c5.783,0,10.578-1.234,14.24-3.67l.5-.33-.556-.234c-5.969-2.5-9.28-6.945-9.582-12.873l-.061-1.162,1.15.158c.08.012,8.154,1.282,9.622,12.078l.024.19.178.068c.282.109.572.214.871.311a31.689,31.689,0,0,0,9.445,1.5c.153,0,.25,0,.278,0h.072s.109,0,.307,0a31.632,31.632,0,0,0,9.429-1.5c.294-.1.584-.2.871-.311l.177-.068.024-.19c.751-5.521,3.207-8.481,5.138-9.993a10.253,10.253,0,0,1,4.485-2.089l1.153-.158-.06,1.162c-.3,5.928-3.614,10.376-9.582,12.873l-.553.234.5.33c3.666,2.436,8.457,3.67,14.24,3.67a49.279,49.279,0,0,0,6.211-.419l.1-.008s.1,0,.258,0a18.384,18.384,0,0,1,2.851.234c2.48.395,5.807,1.447,7.558,4.218,1.326,2.1,1.52,4.8.576,8.046l-.242.834-.843-.145Zm-5.762-10.292c-.263,5.166,2.952,7.239,4.891,8.014l.363.145.073-.383a7.011,7.011,0,0,0-.67-5.179,7.324,7.324,0,0,0-4.242-2.891l-.395-.121-.02.415Zm-74.124-.29a7.343,7.343,0,0,0-4.243,2.891,7,7,0,0,0-.669,5.179l.072.383.363-.145c1.94-.775,5.154-2.848,4.892-8.014l-.02-.411-.395.117Zm56.214-17.785c-3.916,1.835-5.36,5.86-5.876,8.1l-.17.734.646-.387a11.737,11.737,0,0,0,5.847-8.094l.117-.617-.564.266Zm-38.337.363a11.758,11.758,0,0,0,5.844,8.082l.649.387-.169-.734c-.512-2.222-1.96-6.231-5.872-8.086l-.573-.27.121.621Z" fill="#fff"/>
            <path id="Path_4" data-name="Path 4" d="M406.838,195.445a24.193,24.193,0,0,1,4.384-14.276l2.049.585c-4.15,5.384-4.517,12.147-4.545,13.752l-1.888-.061Z" fill="#fff"/>
            <path id="Path_5" data-name="Path 5" d="M397.212,63.321c4.142-5.376,4.517-12.147,4.541-13.752l1.887.061a24.175,24.175,0,0,1-4.383,14.28l-2.045-.589Z" fill="#fff"/>
            <path id="Path_6" data-name="Path 6" d="M401.753,195.506c-.028-1.6-.4-8.376-4.541-13.752l2.049-.585a24.2,24.2,0,0,1,4.383,14.276l-1.891.061Z" fill="#fff"/>
            <path id="Path_7" data-name="Path 7" d="M411.222,63.906a24.2,24.2,0,0,1-4.384-14.28l1.888-.061c.024,1.6.391,8.368,4.545,13.752l-2.049.589Z" fill="#fff"/>
            <path id="Path_8" data-name="Path 8" d="M419.949,208.112c-3.3,0-5.827-.871-7.529-2.585a8.533,8.533,0,0,1-2.283-6.146l0-.383-.379.061a29.426,29.426,0,0,0-4.234,1.024l-.291.093-.29-.093a29.553,29.553,0,0,0-4.234-1.024l-.38-.061,0,.383a8.531,8.531,0,0,1-2.282,6.146c-1.7,1.718-4.235,2.585-7.529,2.585a23.105,23.105,0,0,1-3.061-.217l-.859-.117.024-.867a10.928,10.928,0,0,1,4.254-8.058,11.637,11.637,0,0,1,6.9-1.968,25.761,25.761,0,0,1,7.364,1.242l.092.028.093-.028a25.734,25.734,0,0,1,7.364-1.242,11.636,11.636,0,0,1,6.9,1.968,10.942,10.942,0,0,1,4.255,8.058l.024.867-.859.117a23.071,23.071,0,0,1-3.061.217Zm-7.553-9.3-.3,0-.016.3a6.879,6.879,0,0,0,1.73,5.069c1.331,1.327,3.388,2,6.122,2,.484,0,1-.02,1.52-.065l.367-.028-.076-.359a8.729,8.729,0,0,0-3.291-5.327,9.788,9.788,0,0,0-5.759-1.6c-.1,0-.2,0-.3.008Zm-14.607,0a9.8,9.8,0,0,0-5.759,1.6,8.7,8.7,0,0,0-3.291,5.327l-.077.359.367.028c.525.041,1.037.065,1.521.065,2.734,0,4.791-.674,6.122-2a6.879,6.879,0,0,0,1.73-5.069l-.016-.3-.3,0c-.1-.008-.2-.008-.3-.008Z" fill="#fff"/>
            <path id="Path_9" data-name="Path 9" d="M412.7,48.19a25.739,25.739,0,0,1-7.364-1.238l-.093-.028-.092.028a25.722,25.722,0,0,1-7.364,1.238h0a11.632,11.632,0,0,1-6.9-1.968,10.954,10.954,0,0,1-4.255-8.058l-.024-.867.859-.117a23.1,23.1,0,0,1,3.061-.217c3.29,0,5.823.871,7.529,2.585a8.531,8.531,0,0,1,2.282,6.146l0,.383.38-.061a29.469,29.469,0,0,0,4.234-1.028l.29-.093.291.093a30.144,30.144,0,0,0,4.234,1.028l.379.061,0-.383a8.551,8.551,0,0,1,2.283-6.146c1.7-1.718,4.234-2.585,7.529-2.585a23.162,23.162,0,0,1,3.061.217l.859.117-.024.867a10.931,10.931,0,0,1-4.255,8.058,11.636,11.636,0,0,1-6.9,1.968Zm7.235-9.3c-2.734,0-4.791.674-6.122,2a6.879,6.879,0,0,0-1.73,5.069l.016.3.3,0c.1,0,.2,0,.3,0a9.8,9.8,0,0,0,5.759-1.6,8.7,8.7,0,0,0,3.291-5.327l.076-.359-.367-.028c-.524-.045-1.04-.065-1.52-.065Zm-29.383,0c-.484,0-1,.02-1.521.065l-.367.028.077.359a8.729,8.729,0,0,0,3.291,5.327,9.787,9.787,0,0,0,5.759,1.6c.1,0,.2,0,.3,0l.3,0,.016-.3a6.879,6.879,0,0,0-1.73-5.069c-1.331-1.327-3.388-2-6.122-2Z" fill="#fff"/>
            <path id="Path_10" data-name="Path 10" d="M404.1,221.2a35.627,35.627,0,0,1-3.037-3.751c-4.287-6.464.492-12.421,3.622-14.667l.564-.4.565.4c3.125,2.246,7.908,8.2,3.622,14.667a36.141,36.141,0,0,1-3.037,3.751l-1.146,1.3-1.153-1.3Zm.94-16.212a13.556,13.556,0,0,0-2.533,3.037,7.34,7.34,0,0,0,.165,8.356A29.4,29.4,0,0,0,405,219.3l.242.274.242-.274a28.885,28.885,0,0,0,2.331-2.924c1.17-1.763,3.283-6.4-2.351-11.4l-.214-.19-.213.194Z" fill="#fff"/>
            <path id="Path_11" data-name="Path 11" d="M404.677,42.3c-3.126-2.246-7.909-8.2-3.622-14.667A35.664,35.664,0,0,1,404.1,23.88l1.141-1.3,1.138,1.291a36.685,36.685,0,0,1,3.044,3.755c4.287,6.464-.492,12.421-3.621,14.667l-.565.4-.556-.4ZM405,25.771a28.834,28.834,0,0,0-2.331,2.924c-1.169,1.763-3.278,6.4,2.352,11.4l.213.19.214-.194a13.556,13.556,0,0,0,2.533-3.037,7.333,7.333,0,0,0-.17-8.356,28.557,28.557,0,0,0-2.331-2.924l-.242-.274-.238.274Z" fill="#fff"/>
            <path id="Path_12" data-name="Path 12" d="M457.584,207.253c-4.824-.5-7.663-3.351-9.2-9.227a55.972,55.972,0,0,1-1.476-9.634,13.1,13.1,0,0,0-6.344-10.453,10.544,10.544,0,0,0,2.714-.416,14.82,14.82,0,0,1,5.553,10.72c.146,1.839.339,3.561.577,5.117l.036.234.23.037c3.662.592,6.3,2.1,7.832,4.5,2.412,3.759,1.157,8.247,1.105,8.437l-.222.778-.806-.089ZM449.909,196.1c.109.5.222.984.343,1.443,1.2,4.594,3.093,6.868,6.327,7.6l.347.081.045-.355a8.793,8.793,0,0,0-1.1-5.71,8.5,8.5,0,0,0-5.578-3.441l-.492-.108.105.488Z" fill="#fff"/>
            <path id="Path_13" data-name="Path 13" d="M367.2,67.548a14.813,14.813,0,0,1-5.554-10.72c-.145-1.839-.338-3.561-.576-5.117l-.037-.234-.23-.037c-3.661-.592-6.3-2.1-7.831-4.5-2.412-3.755-1.158-8.247-1.105-8.437l.226-.774.8.084c4.823.5,7.662,3.352,9.2,9.228a55.972,55.972,0,0,1,1.476,9.634,13.083,13.083,0,0,0,6.344,10.453,10.571,10.571,0,0,0-2.714.416ZM353.512,40.209a8.787,8.787,0,0,0,1.1,5.71,8.494,8.494,0,0,0,5.577,3.44l.492.109-.1-.492c-.109-.5-.222-.984-.343-1.443-1.2-4.594-3.093-6.868-6.328-7.6l-.347-.081-.044.359Z" fill="#fff"/>
            <path id="Path_14" data-name="Path 14" d="M351.871,206.56c-.053-.19-1.307-4.678,1.105-8.437,1.536-2.391,4.17-3.9,7.831-4.5l.23-.036.037-.234c.238-1.556.431-3.278.576-5.117a14.828,14.828,0,0,1,5.554-10.72,10.417,10.417,0,0,0,2.714.416,13.073,13.073,0,0,0-6.344,10.453,55.972,55.972,0,0,1-1.476,9.634c-1.536,5.876-4.376,8.723-9.2,9.227l-.8.085-.226-.774Zm8.319-10.849a8.5,8.5,0,0,0-5.577,3.44,8.79,8.79,0,0,0-1.1,5.711l.044.355.347-.081c3.235-.734,5.126-3.008,6.328-7.6.121-.459.234-.947.343-1.443l.1-.492-.492.112Z" fill="#fff"/>
            <path id="Path_15" data-name="Path 15" d="M443.279,67.548a10.4,10.4,0,0,0-2.714-.416,13.073,13.073,0,0,0,6.344-10.453,55.972,55.972,0,0,1,1.476-9.634c1.536-5.876,4.375-8.723,9.2-9.228l.806-.084.222.774c.053.19,1.311,4.678-1.105,8.437-1.536,2.391-4.17,3.9-7.832,4.5l-.23.037-.036.234c-.238,1.556-.431,3.278-.577,5.117a14.812,14.812,0,0,1-5.553,10.72Zm13.3-27.613c-3.234.734-5.125,3.008-6.327,7.6-.121.459-.234.947-.343,1.443l-.105.492.492-.108a8.5,8.5,0,0,0,5.578-3.441,8.818,8.818,0,0,0,1.1-5.71l-.045-.355-.347.077Z" fill="#fff"/>
            <path id="Path_16" data-name="Path 16" d="M439.738,194.7a7.983,7.983,0,0,1-2.552-.411,9.029,9.029,0,0,1-5-4.573l-.375-.859.847-.4a13.455,13.455,0,0,1,5.682-1.435,8.587,8.587,0,0,1,7.711,4.662l.383.814-.787.44a12.232,12.232,0,0,1-5.908,1.762Zm-1.367-5.751a10.443,10.443,0,0,0-3.533.682l-.411.149.262.347a6.687,6.687,0,0,0,3.138,2.339,6.062,6.062,0,0,0,1.907.3,9.231,9.231,0,0,0,3.723-.887l.383-.169-.266-.327a6.467,6.467,0,0,0-5.2-2.432Z" fill="#fff"/>
            <path id="Path_17" data-name="Path 17" d="M372.14,58.058a8.585,8.585,0,0,1-7.715-4.662l-.383-.814.786-.44a12.282,12.282,0,0,1,5.912-1.766,7.984,7.984,0,0,1,2.553.411,9,9,0,0,1,5,4.573l.375.859-.847.4a13.376,13.376,0,0,1-5.682,1.439Zm-1.4-5.746a9.23,9.23,0,0,0-3.722.887l-.383.169.266.327a6.471,6.471,0,0,0,5.207,2.436,10.438,10.438,0,0,0,3.532-.682l.412-.149-.262-.347a6.687,6.687,0,0,0-3.138-2.339,6.013,6.013,0,0,0-1.912-.3Z" fill="#fff"/>
            <path id="Path_18" data-name="Path 18" d="M370.744,194.7a12.226,12.226,0,0,1-5.912-1.766l-.786-.44.383-.814a8.585,8.585,0,0,1,7.715-4.662,13.426,13.426,0,0,1,5.682,1.435l.847.4-.375.859a9.014,9.014,0,0,1-5,4.573,7.878,7.878,0,0,1-2.553.415Zm1.364-5.751a6.479,6.479,0,0,0-5.207,2.436l-.266.327.383.169a9.245,9.245,0,0,0,3.722.887,6.082,6.082,0,0,0,1.908-.3,6.661,6.661,0,0,0,3.138-2.339l.262-.347-.412-.149a10.313,10.313,0,0,0-3.528-.686Z" fill="#fff"/>
            <path id="Path_19" data-name="Path 19" d="M438.343,58.058a13.426,13.426,0,0,1-5.682-1.435l-.847-.4.375-.859a9.029,9.029,0,0,1,5-4.573,7.947,7.947,0,0,1,2.552-.411,12.239,12.239,0,0,1,5.913,1.766l.786.44-.383.814a8.778,8.778,0,0,1-4.727,4.154,9,9,0,0,1-2.988.5Zm1.391-5.746a6.079,6.079,0,0,0-1.931.306,6.666,6.666,0,0,0-3.11,2.331l-.266.347.411.149a10.28,10.28,0,0,0,3.5.678,6.957,6.957,0,0,0,2.335-.392,6.775,6.775,0,0,0,2.875-2.044l.275-.327-.391-.173a9.215,9.215,0,0,0-3.7-.875Z" fill="#fff"/>
            <path id="Path_20" data-name="Path 20" d="M477.889,196.353a5.4,5.4,0,0,1-4.138-1.924,4.506,4.506,0,0,1,.553-6.336,3.787,3.787,0,0,1,5.327.464.906.906,0,0,1,.21.666.888.888,0,0,1-.323.617.913.913,0,0,1-1.282-.109,1.963,1.963,0,0,0-2.767-.242,2.679,2.679,0,0,0-.326,3.775,3.568,3.568,0,0,0,2.742,1.274,3.607,3.607,0,0,0,2.3-.835,4.7,4.7,0,0,0,.576-6.618,6.111,6.111,0,0,0-8.6-.746.99.99,0,0,1-.242.141l-.068.028-.053.061a9.641,9.641,0,0,1-2.133,1.839,11.931,11.931,0,0,1-16.45-3.69,14.769,14.769,0,0,1,4.2-20.023l.315-.21-.258-.278a15.64,15.64,0,0,1-2.343-3.263,15.667,15.667,0,0,1,13.679-8.033h.121a15.651,15.651,0,0,1,13.675,8.243,15.667,15.667,0,0,1-13.679,8.033h-.121a15.511,15.511,0,0,1-9.513-3.315l-.218-.169-.2.19a.831.831,0,0,1-.145.113,12.86,12.86,0,0,0-3.976,17.736,10.111,10.111,0,0,0,13.941,3.129,7.909,7.909,0,0,0,2.444-10.9,6.14,6.14,0,0,0-8.469-1.9.9.9,0,0,1-.488.141.894.894,0,0,1-.766-.423.91.91,0,0,1-.121-.686.887.887,0,0,1,.4-.568,7.965,7.965,0,0,1,10.982,2.46,9.718,9.718,0,0,1,1.1,7.944l-.157.541.545-.137a7.938,7.938,0,0,1,7.993,2.577,6.523,6.523,0,0,1-.8,9.182,5.45,5.45,0,0,1-3.468,1.251Zm-19.983-34.082a14.012,14.012,0,0,0,10.917,5.328h.1a14.123,14.123,0,0,0,10.9-5.324l.431-.524H464.7l2.673,2.206a.79.79,0,0,1-.488,1.411h0a.779.779,0,0,1-.492-.173l-3.835-3.053a1.046,1.046,0,0,1-.169-.226l-.093-.153-.186-.008h-4.617l.411.516Zm15.007-5.384a.791.791,0,0,1,.786.851.771.771,0,0,1-.274.537l-2.4,1.891h9.223l-.415-.524a13.937,13.937,0,0,0-10.917-5.162h-.109a14.017,14.017,0,0,0-10.889,5.162l-.431.524h11.183l3.718-3.093a.866.866,0,0,1,.521-.186Z" fill="#fff"/>
            <path id="Path_21" data-name="Path 21" d="M340.809,56.679a11.931,11.931,0,0,1,16.45,3.69,14.768,14.768,0,0,1-4.2,20.023l-.314.21.258.278a15.676,15.676,0,0,1,2.343,3.263,15.668,15.668,0,0,1-13.679,8.033h-.121a15.657,15.657,0,0,1-13.676-8.243,15.669,15.669,0,0,1,13.68-8.033h.121a15.519,15.519,0,0,1,9.513,3.315l.218.173.2-.193a.716.716,0,0,1,.145-.113,12.868,12.868,0,0,0,3.98-17.737,10.111,10.111,0,0,0-13.941-3.129,7.9,7.9,0,0,0-2.444,10.9,6.14,6.14,0,0,0,8.469,1.9.909.909,0,0,1,.972,1.536,7.966,7.966,0,0,1-10.982-2.46,9.722,9.722,0,0,1-1.1-7.944l.157-.541-.544.137a7.931,7.931,0,0,1-1.932.238h0a7.9,7.9,0,0,1-6.061-2.815,6.523,6.523,0,0,1,.8-9.182,5.4,5.4,0,0,1,7.6.661,4.5,4.5,0,0,1-.548,6.336,3.787,3.787,0,0,1-5.327-.464.91.91,0,0,1,.7-1.5.9.9,0,0,1,.7.326,1.966,1.966,0,0,0,2.766.238,2.678,2.678,0,0,0,.327-3.775,3.569,3.569,0,0,0-2.742-1.274,3.605,3.605,0,0,0-2.3.835,4.7,4.7,0,0,0-.577,6.618,6.109,6.109,0,0,0,8.6.746.893.893,0,0,1,.242-.141l.073-.028m-7.989,26.858a13.926,13.926,0,0,0,10.917,5.166h.109a14.027,14.027,0,0,0,10.888-5.162l.432-.524H341.8L338.082,88a.788.788,0,0,1-1.3-.657.8.8,0,0,1,.274-.541l2.4-1.891h-9.224l.412.516ZM343.6,79.707a.777.777,0,0,1,.492.173l3.836,3.053a1.08,1.08,0,0,1,.169.226l.093.153.185.008h4.618l-.416-.52a14.011,14.011,0,0,0-10.917-5.328h-.1a14.121,14.121,0,0,0-10.9,5.324l-.432.524h15.551L343.1,81.114A.791.791,0,0,1,342.974,80a.807.807,0,0,1,.621-.294Z" fill="#fff"/>
            <path id="Path_22" data-name="Path 22" d="M332.59,196.353a5.385,5.385,0,0,1-3.465-1.263,6.524,6.524,0,0,1-.8-9.182,7.893,7.893,0,0,1,6.061-2.815,7.98,7.98,0,0,1,1.932.238l.544.137-.157-.541a9.726,9.726,0,0,1,1.1-7.944,7.965,7.965,0,0,1,10.982-2.46.894.894,0,0,1,.4.568.907.907,0,0,1-.887,1.109.888.888,0,0,1-.484-.141,6.14,6.14,0,0,0-8.469,1.9,7.909,7.909,0,0,0,2.444,10.9,10.111,10.111,0,0,0,13.941-3.129,12.868,12.868,0,0,0-3.98-17.737.893.893,0,0,1-.145-.112l-.2-.194-.218.173a15.519,15.519,0,0,1-9.513,3.315h-.125a15.673,15.673,0,0,1-13.68-8.033,15.657,15.657,0,0,1,13.676-8.243h.121a15.668,15.668,0,0,1,13.679,8.033A15.676,15.676,0,0,1,353,164.2l-.258.278.314.21a14.768,14.768,0,0,1,4.2,20.023,11.877,11.877,0,0,1-10.087,5.537h0a11.871,11.871,0,0,1-6.363-1.847,9.724,9.724,0,0,1-2.134-1.839l-.048-.061-.073-.028a.821.821,0,0,1-.242-.141,6.109,6.109,0,0,0-8.6.746,4.7,4.7,0,0,0,.577,6.618,3.584,3.584,0,0,0,5.041-.44,2.681,2.681,0,0,0-.327-3.774,1.966,1.966,0,0,0-2.766.238.911.911,0,0,1-1.605-.5.9.9,0,0,1,.21-.662,3.787,3.787,0,0,1,5.327-.464,4.5,4.5,0,0,1,.548,6.336,5.349,5.349,0,0,1-4.133,1.932Zm-1.932-34.078a14.122,14.122,0,0,0,10.9,5.323h.1a14.019,14.019,0,0,0,10.916-5.327l.416-.52h-4.8l-.093.153a1,1,0,0,1-.173.238l-3.836,3.053a.787.787,0,0,1-1.109-.125.793.793,0,0,1,.125-1.109l2.678-2.21h-15.55l.423.524Zm6.908-5.388a.786.786,0,0,1,.512.19l3.723,3.093h11.183l-.432-.524a14.033,14.033,0,0,0-10.888-5.162h-.109a13.941,13.941,0,0,0-10.917,5.162l-.416.524h9.223l-2.4-1.9a.789.789,0,0,1-.266-.532.778.778,0,0,1,.185-.573.81.81,0,0,1,.605-.278Z" fill="#fff"/>
            <path id="Path_23" data-name="Path 23" d="M468.815,92.168a15.672,15.672,0,0,1-13.679-8.033,15.64,15.64,0,0,1,2.343-3.263l.258-.278-.315-.21a14.769,14.769,0,0,1-4.2-20.023,11.931,11.931,0,0,1,16.45-3.69A9.746,9.746,0,0,1,471.8,58.51l.052.056.069.029a.794.794,0,0,1,.241.141,6.111,6.111,0,0,0,8.6-.746,4.7,4.7,0,0,0-.576-6.618,3.585,3.585,0,0,0-5.041.439,2.683,2.683,0,0,0,.326,3.775,1.967,1.967,0,0,0,2.767-.238.909.909,0,0,1,1.282-.113.909.909,0,0,1,.113,1.283,3.787,3.787,0,0,1-5.327.464,4.506,4.506,0,0,1-.553-6.336,5.4,5.4,0,0,1,7.6-.661,6.525,6.525,0,0,1,.8,9.182,7.932,7.932,0,0,1-7.989,2.577l-.545-.137.158.541a9.726,9.726,0,0,1-1.1,7.944,7.965,7.965,0,0,1-10.982,2.46.907.907,0,0,1-.278-1.254.908.908,0,0,1,1.254-.282,6.14,6.14,0,0,0,8.469-1.9,7.909,7.909,0,0,0-2.444-10.9,10.111,10.111,0,0,0-13.941,3.129,12.867,12.867,0,0,0,3.976,17.737,1.179,1.179,0,0,1,.145.112l.2.19.218-.169a15.519,15.519,0,0,1,9.513-3.315h.121a15.675,15.675,0,0,1,13.68,8.033,15.658,15.658,0,0,1-13.676,8.243l-.121-.008Zm-10.889-6.739a14.029,14.029,0,0,0,10.889,5.162h.109a13.932,13.932,0,0,0,10.917-5.166l.415-.52h-9.223l2.4,1.9a.791.791,0,0,1-.52,1.384A.791.791,0,0,1,472.4,88L468.682,84.9H457.5l.427.524Zm8.961-5.722a.782.782,0,0,1,.617.3.791.791,0,0,1-.125,1.109l-2.677,2.21h15.55l-.431-.524a14.123,14.123,0,0,0-10.9-5.324h-.1A14.025,14.025,0,0,0,457.906,82.8l-.415.52h4.8l.093-.153a1.086,1.086,0,0,1,.173-.238l3.835-3.053a.8.8,0,0,1,.5-.173Z" fill="#fff"/>
            <path id="Path_24" data-name="Path 24" d="M445.167,155.532a25.457,25.457,0,0,0,8.194-1.835,17.312,17.312,0,0,0,10.728-11.985l.1-.387-.4-.017a9.9,9.9,0,0,1-6.739-2.907c-2.411-2.545-3.278-6.477-2.577-11.7l.125-.939.94.109c.226.024,5.6.685,8.562,4.851a10.086,10.086,0,0,1,1.758,4.594l.117.923.476-.8a9.671,9.671,0,0,1,8.7-5.179c.185,0,.375,0,.564.013,3.384.153,8.756,3.028,8.752,10.082v.746l-.722.189a13.188,13.188,0,0,1-3.053.343,9.745,9.745,0,0,1-5.081-1.258,7.718,7.718,0,0,1-3.477-4.815l1.88-.452a5.777,5.777,0,0,0,2.581,3.6,7.805,7.805,0,0,0,4.081.992,12.437,12.437,0,0,0,1.528-.1l.311-.041-.032-.31a7.61,7.61,0,0,0-6.856-7.05c-.149-.008-.3-.008-.444-.008-4.521,0-7.578,3.182-9.086,9.461a19.426,19.426,0,0,1-12.09,13.865,27.247,27.247,0,0,1-8.844,1.948v-1.944Zm11.07-27.181c-.311,3.892.431,6.815,2.2,8.7a7.963,7.963,0,0,0,5.069,2.3l.3.029.049-.295a9.542,9.542,0,0,0-1.311-7.227,10.708,10.708,0,0,0-5.9-3.79l-.375-.1-.032.387Z" fill="#fff"/>
            <path id="Path_25" data-name="Path 25" d="M354.94,119.2c-.226-.024-5.6-.685-8.562-4.851a10.064,10.064,0,0,1-1.758-4.594l-.117-.923-.476.8a9.684,9.684,0,0,1-8.707,5.179c-.186,0-.371,0-.557-.013-3.387-.153-8.755-3.024-8.751-10.082v-.746l.722-.189a13.177,13.177,0,0,1,3.053-.343,9.745,9.745,0,0,1,5.081,1.258,7.721,7.721,0,0,1,3.477,4.815l-1.88.452a5.77,5.77,0,0,0-2.593-3.613,7.834,7.834,0,0,0-4.073-.98,12.325,12.325,0,0,0-1.524.1l-.311.041.032.31a7.61,7.61,0,0,0,6.856,7.05c.149.008.3.008.448.008,4.517,0,7.569-3.182,9.078-9.461a19.422,19.422,0,0,1,12.09-13.865,27.135,27.135,0,0,1,8.844-1.948v1.932a25.757,25.757,0,0,0-8.2,1.835,17.318,17.318,0,0,0-10.727,11.985l-.105.387.4.021a9.9,9.9,0,0,1,6.743,2.907c2.412,2.545,3.275,6.477,2.577,11.695l-.125.94-.939-.1Zm-8.308-13.211a9.557,9.557,0,0,0,1.319,7.243,10.668,10.668,0,0,0,5.888,3.779l.371.1.032-.387c.311-3.892-.427-6.819-2.194-8.7a7.942,7.942,0,0,0-5.069-2.3l-.3-.029-.048.295Z" fill="#fff"/>
            <path id="Path_26" data-name="Path 26" d="M365.312,157.464a27.248,27.248,0,0,1-8.844-1.948,19.431,19.431,0,0,1-12.09-13.865c-1.509-6.275-4.561-9.461-9.078-9.461-.149,0-.3,0-.448.008a7.613,7.613,0,0,0-6.856,7.05l-.032.31.311.04a12.2,12.2,0,0,0,1.528.1,7.817,7.817,0,0,0,4.081-.992,5.748,5.748,0,0,0,2.581-3.6l1.88.451a7.725,7.725,0,0,1-3.477,4.816,9.755,9.755,0,0,1-5.081,1.258,13.3,13.3,0,0,1-3.049-.343l-.722-.189v-.746c0-7.054,5.364-9.925,8.751-10.083.19-.008.375-.012.561-.012a9.678,9.678,0,0,1,8.7,5.182l.476.8.117-.923a10.046,10.046,0,0,1,1.758-4.6c2.96-4.166,8.332-4.827,8.562-4.851l.939-.109.125.939c.7,5.219-.165,9.155-2.577,11.7a9.876,9.876,0,0,1-6.742,2.907l-.4.016.105.388a17.313,17.313,0,0,0,10.727,11.985,25.467,25.467,0,0,0,8.2,1.835l0,1.944Zm-11.473-29.4a10.691,10.691,0,0,0-5.9,3.79,9.537,9.537,0,0,0-1.311,7.227l.048.295.3-.029a7.963,7.963,0,0,0,5.069-2.3c1.767-1.88,2.505-4.808,2.194-8.7l-.032-.387-.371.1Z" fill="#fff"/>
            <path id="Path_27" data-name="Path 27" d="M454.474,118.374c-.7-5.219.17-9.155,2.577-11.7a9.9,9.9,0,0,1,6.739-2.911l.4-.016-.1-.388a17.312,17.312,0,0,0-10.728-11.985,25.753,25.753,0,0,0-8.194-1.835V87.611a27.252,27.252,0,0,1,8.844,1.948,19.435,19.435,0,0,1,12.09,13.865c1.508,6.275,4.565,9.461,9.086,9.461.145,0,.294,0,.44-.008a7.608,7.608,0,0,0,6.855-7.05l.033-.31-.311-.04a12.2,12.2,0,0,0-1.528-.1,7.821,7.821,0,0,0-4.082.992,5.755,5.755,0,0,0-2.581,3.6l-1.879-.451a7.723,7.723,0,0,1,3.476-4.816,9.761,9.761,0,0,1,5.082-1.258,13.493,13.493,0,0,1,3.053.343l.722.189v.747c0,7.053-5.364,9.924-8.748,10.082-.189.008-.375.012-.56.012a9.682,9.682,0,0,1-8.707-5.178l-.476-.8-.117.924a10.037,10.037,0,0,1-1.758,4.593c-2.96,4.166-8.332,4.827-8.562,4.852l-.94.108-.121-.951Zm9.03-12.651a7.942,7.942,0,0,0-5.069,2.3c-1.767,1.88-2.505,4.807-2.2,8.695l.032.387.375-.1a10.691,10.691,0,0,0,5.9-3.79,9.537,9.537,0,0,0,1.311-7.227l-.049-.3-.3.033Z" fill="#fff"/>
            <path id="Path_28" data-name="Path 28" d="M469.569,126.9c-4.5,0-7.11-3.553-7.646-4.364.532-.806,3.142-4.363,7.646-4.363a10.977,10.977,0,0,1,4.707,1.165,31.8,31.8,0,0,1,5.46,3.194,32,32,0,0,1-5.46,3.2,10.9,10.9,0,0,1-4.707,1.17Zm0-6.8a7.012,7.012,0,0,0-4.98,2.206l-.226.225.226.226a7.02,7.02,0,0,0,4.98,2.206,9.042,9.042,0,0,0,3.872-.98c.786-.375,1.552-.77,2.274-1.173l.5-.283-.5-.282c-.718-.4-1.484-.794-2.274-1.173a9.141,9.141,0,0,0-3.872-.972Z" fill="#fff"/>
            <path id="Path_29" data-name="Path 29" d="M340.913,126.9a10.973,10.973,0,0,1-4.706-1.165,31.433,31.433,0,0,1-5.46-3.2,32.214,32.214,0,0,1,5.46-3.194,10.96,10.96,0,0,1,4.706-1.165c4.505,0,7.11,3.553,7.647,4.364-.537.806-3.146,4.359-7.647,4.359Zm0-6.8a9.09,9.09,0,0,0-3.871.976c-.79.375-1.553.77-2.275,1.173l-.5.282.5.283c.722.4,1.489.8,2.275,1.173a9.041,9.041,0,0,0,3.871.98,7.02,7.02,0,0,0,4.981-2.206l.226-.225-.226-.226a7.022,7.022,0,0,0-4.981-2.21Z" fill="#fff"/>
            <path id="Path_30" data-name="Path 30" d="M479.248,180.689a12.3,12.3,0,0,1-1.641-.117l-.694-.093-.125-.689c-.028-.157-.681-3.876,1.637-6.408a7.554,7.554,0,0,1,5.836-2.166c.444,0,.915.024,1.4.069l.815.072.061.815c.012.173.294,4.271-2.336,6.747a6.98,6.98,0,0,1-4.952,1.77Zm5-7.545a5.721,5.721,0,0,0-4.388,1.528,5.493,5.493,0,0,0-1.242,3.759v.31l.311.012c.1,0,.209,0,.314,0a5.112,5.112,0,0,0,3.634-1.246,6.366,6.366,0,0,0,1.7-4.017l.032-.35Z" fill="#fff"/>
            <path id="Path_31" data-name="Path 31" d="M326.226,73.859c-.444,0-.916-.024-1.4-.064l-.814-.073-.061-.815c-.012-.173-.29-4.279,2.335-6.747a6.943,6.943,0,0,1,4.949-1.77,12.31,12.31,0,0,1,1.641.117l.694.093.125.689c.028.158.677,3.884-1.634,6.408a7.584,7.584,0,0,1-5.839,2.162Zm5.025-7.541a5.1,5.1,0,0,0-3.638,1.246,6.361,6.361,0,0,0-1.7,4.017l-.032.35h.355a5.712,5.712,0,0,0,4.4-1.54,5.516,5.516,0,0,0,1.23-3.747v-.31l-.311-.012c-.105,0-.205,0-.306,0Z" fill="#fff"/>
            <path id="Path_32" data-name="Path 32" d="M331.235,180.689a6.959,6.959,0,0,1-4.949-1.77c-2.621-2.472-2.347-6.574-2.335-6.747l.061-.815.814-.072c.48-.045.952-.069,1.4-.069a7.541,7.541,0,0,1,5.831,2.166c2.311,2.524,1.666,6.251,1.634,6.408l-.125.689-.694.093a12.207,12.207,0,0,1-1.637.117Zm-5.324-7.19a6.3,6.3,0,0,0,1.71,4.024,5.14,5.14,0,0,0,3.638,1.234c.1,0,.2,0,.3,0l.311-.008v-.31a5.493,5.493,0,0,0-1.242-3.759,5.737,5.737,0,0,0-4.392-1.528h-.355l.032.351Z" fill="#fff"/>
            <path id="Path_33" data-name="Path 33" d="M484.257,73.859a7.554,7.554,0,0,1-5.836-2.166c-2.318-2.532-1.665-6.251-1.637-6.408l.125-.689.694-.093a12.3,12.3,0,0,1,1.641-.117,6.946,6.946,0,0,1,4.944,1.77c2.63,2.476,2.347,6.574,2.335,6.747l-.06.815-.815.072c-.476.045-.943.069-1.391.069Zm-5.025-7.541c-.1,0-.206,0-.307,0l-.31.012v.31a5.513,5.513,0,0,0,1.242,3.759,5.737,5.737,0,0,0,4.392,1.528h.355l-.037-.35a6.3,6.3,0,0,0-1.709-4.025,5.1,5.1,0,0,0-3.626-1.238Z" fill="#fff"/>
          </g>
        </g>
      </g>
      <g id="Layer_5" data-name="Layer 5">
        <g id="Group_3" data-name="Group 3" style="isolation: isolate">
          <path id="Path_34" data-name="Path 34" d="M194.751,426.678c-1.006-.048-2.54-.1-4.169-.1-1.773,0-3.115.047-4.17.1v-.239c1.774-.288,2.4-.527,2.4-4.361V396.34c0-3.835-.815-4.074-2.637-4.361v-.24c1.055.048,2.541.1,3.835.1,2.636,0,3.834-.1,5.655-.1,8.292,0,11.647,4.17,11.647,9.442a9.356,9.356,0,0,1-9.682,9.585,6.3,6.3,0,0,1-3.786-1.1l.192-.383a6.369,6.369,0,0,0,2.924.671c4.361,0,6.421-3.451,6.421-7.956,0-5.56-2.779-9.155-7.668-9.155a11.811,11.811,0,0,0-3.355.48v28.757c0,3.834.624,4.073,2.4,4.361Z" fill="#fff"/>
          <path id="Path_35" data-name="Path 35" d="M217.755,426.678c-1.054-.048-1.821-.1-3.594-.1s-2.541.047-3.6.1v-.239c1.438-.288,2.061-.527,2.061-4.361V407.459c0-1.725-.048-2.205-1.486-2.587v-.241a14.368,14.368,0,0,0,4.553-1.053v2.2a7.513,7.513,0,0,1,4.793-2.2c2.492,0,3.067,1.772,3.067,3.977h-3.067c0-1.773-.671-2.492-1.773-2.492-.767,0-1.726.335-3.02,1.821v15.194c0,3.834.623,4.073,2.061,4.361Z" fill="#fff"/>
          <path id="Path_36" data-name="Path 36" d="M233.713,426.678c-1.054-.048-1.821-.1-3.594-.1s-2.541.047-3.6.1v-.239c1.438-.288,2.061-.527,2.061-4.361V407.7c0-1.726-.048-2.2-1.486-2.588v-.239a14.4,14.4,0,0,0,4.553-1.055v18.261c0,3.834.623,4.073,2.061,4.361Zm-3.355-26.647a1.616,1.616,0,0,1-1.629-1.63,1.64,1.64,0,0,1,1.629-1.726,1.661,1.661,0,0,1,1.725,1.726A1.64,1.64,0,0,1,230.358,400.031Z" fill="#fff"/>
          <path id="Path_37" data-name="Path 37" d="M246.893,427.349l-8.675-21.04c-.767-1.917-1.342-2.06-2.588-2.3v-.239c.671,0,2.252.048,3.978.048,1.821,0,3.451-.048,4.121-.048v.239c-1.437.193-2.156.432-2.156,1.294a3.794,3.794,0,0,0,.335,1.391l6.279,15.337,5.416-12.174a12.05,12.05,0,0,0,1.39-4.122c0-1.007-.671-1.582-2.4-1.726v-.239c.671,0,1.677.048,3.786.048,1.582,0,2.732-.048,3.4-.048v.239c-1.581.336-2.588.767-5.224,6.71l-7.333,16.631Z" fill="#fff"/>
          <path id="Path_38" data-name="Path 38" d="M280.3,424.618c-.719,1.15-1.773,2.444-3.451,2.444-1.725,0-2.683-1.294-2.683-3.02a10.329,10.329,0,0,1-7.142,3.02c-4.074,0-6.135-2.54-6.135-5.272,0-3.355,2.972-6.087,7.717-6.087a10.21,10.21,0,0,1,5.56,1.582v-8.1c0-3.019-1.151-4.745-4.362-4.745-2.588,0-5.416,1.917-5.56,6.039H261.8a8.156,8.156,0,0,1,8.388-6.9c3.45,0,7.045,1.1,7.045,6.23v12.6c0,1.964.335,2.684,1.39,2.684a2.152,2.152,0,0,0,1.581-.72Zm-6.134-6.471a6.908,6.908,0,0,0-4.6-1.533,4.9,4.9,0,0,0-5.225,4.888,4.084,4.084,0,0,0,4.362,4.218,7.233,7.233,0,0,0,5.464-2.636Z" fill="#fff"/>
          <path id="Path_39" data-name="Path 39" d="M295.391,423.276a5.646,5.646,0,0,1-5.512,3.786c-2.54,0-4.936-.527-4.936-5.7V406.741c0-2.014-.383-2.3-2.349-2.637v-.239c3.068,0,5.081-2.876,5.847-6.326h.288a39,39,0,0,0-.719,6.278h3.93c2.3,0,3.068,0,3.787-1.2l.287.287a14.4,14.4,0,0,0-1.965,3.4h-.383a1.719,1.719,0,0,0,.1-.527c0-.815-.672-1.007-2.3-1.007H288.01v16.487c0,3.308.959,4.458,3.4,4.458a3.6,3.6,0,0,0,3.738-2.589Z" fill="#fff"/>
          <path id="Path_40" data-name="Path 40" d="M317.341,423.324a9.79,9.79,0,0,1-7.956,3.738c-7.717,0-11.407-5.848-11.407-11.694,0-6.567,4.314-11.79,10.209-11.79,4.84,0,8.818,3.45,8.818,8.482H301.956c-.048.48-.1,1.055-.1,1.63,0,7.62,3.978,11.79,9.442,11.79a7.9,7.9,0,0,0,5.847-2.349ZM313.075,411.1c-.191-4.361-2.013-6.9-4.984-6.9-2.924,0-5.32,2.731-6.039,6.9Z" fill="#fff"/>
          <path id="Path_41" data-name="Path 41" d="M354.53,420.4c-.048,4.025-.288,4.218-.288,6.326-4.457-.143-5.415-.143-9.873-.143-3.643,0-8.627.047-9.633.1v-.239c2.3-.384,2.731-1.1,2.731-4.361V396.34c0-3.835-.623-4.074-2.4-4.361v-.24c1.054.048,2.4.1,4.17.1,1.63,0,3.163-.047,4.17-.1v.24c-1.774.287-2.4.526-2.4,4.361v28.517a16.127,16.127,0,0,0,4.073.288c7.478,0,8.484,0,9.2-4.745Z" fill="#fff"/>
          <path id="Path_42" data-name="Path 42" d="M379.786,424.618c-.719,1.15-1.581,2.444-3.451,2.444-1.821,0-2.684-1.294-2.684-4.409a8.859,8.859,0,0,1-7.716,4.409c-4.409,0-7.237-2.444-7.237-8.292V407.459c0-1.725-.384-2.252-2.349-2.587v-.241a16.224,16.224,0,0,0,5.416-1.053v14.953c0,5.128,1.63,7.237,5.368,7.237,2.924,0,5.08-1.391,6.518-4.266V407.459c0-1.725-.144-2.252-2.109-2.587v-.241a14.888,14.888,0,0,0,5.176-1.053V422.03c0,1.485,0,3.163,1.246,3.163a2.378,2.378,0,0,0,1.726-.816Z" fill="#fff"/>
          <path id="Path_43" data-name="Path 43" d="M406.192,426.63c-.671,0-3.4-.047-5.32-.047-2.348,0-2.4.047-3.164.047v-.239c.768-.1,1.151-.336,1.151-.767a5.114,5.114,0,0,0-1.055-1.917l-5.223-7.189-3.02,4.025c-.671.912-2.492,3.02-2.492,4.505,0,.72.431,1.2,1.582,1.343v.239c-.672,0-2.4-.047-4.506-.047-1.581,0-2.252.047-2.924.047v-.239c1.87-.192,2.733,0,10.784-10.688l-6.757-9.394a5.169,5.169,0,0,0-3.787-2.3v-.239c.671,0,4.17.1,5.895.1,1.821,0,2.685-.1,3.451-.1v.239c-1.437.193-2.444.48-2.444,1.342a2.6,2.6,0,0,0,.671,1.63l4.7,6.519,2.684-3.547c.766-1.055,2.732-3.739,2.732-4.793,0-.528-.288-.958-1.2-1.055v-.239c.671,0,1.773.048,3.882.048,1.582,0,2.876-.048,3.546-.048v.239c-1.821.192-3.307.048-11.023,10.209l7.142,9.777c1.581,2.157,3.066,2.205,4.7,2.3Z" fill="#fff"/>
          <path id="Path_44" data-name="Path 44" d="M430.824,424.618c-.719,1.15-1.581,2.444-3.45,2.444-1.822,0-2.685-1.294-2.685-4.409a8.859,8.859,0,0,1-7.716,4.409c-4.409,0-7.237-2.444-7.237-8.292V407.459c0-1.725-.384-2.252-2.349-2.587v-.241a16.224,16.224,0,0,0,5.416-1.053v14.953c0,5.128,1.63,7.237,5.368,7.237,2.924,0,5.08-1.391,6.518-4.266V407.459c0-1.725-.144-2.252-2.108-2.587v-.241a14.883,14.883,0,0,0,5.175-1.053V422.03c0,1.485,0,3.163,1.246,3.163a2.378,2.378,0,0,0,1.726-.816Z" fill="#fff"/>
          <path id="Path_45" data-name="Path 45" d="M441.318,426.678c-1.055-.048-1.821-.1-3.6-.1s-2.54.047-3.6.1v-.239c1.439-.288,2.062-.527,2.062-4.361V407.459c0-1.725-.048-2.205-1.486-2.587v-.241a14.368,14.368,0,0,0,4.553-1.053v2.2a7.513,7.513,0,0,1,4.793-2.2c2.492,0,3.068,1.772,3.068,3.977H444.05c0-1.773-.671-2.492-1.773-2.492-.767,0-1.726.335-3.02,1.821v15.194c0,3.834.623,4.073,2.061,4.361Z" fill="#fff"/>
          <path id="Path_46" data-name="Path 46" d="M459.625,437.415c-.67,0-2.779-.048-4.888-.048-1.581,0-2.013.048-2.684.048v-.241c2.156-.191,3.02-.671,5.943-6.853l1.918-4.026-8.82-19.89c-.91-2.013-1.725-2.156-2.971-2.4v-.239c.67,0,2.636.048,4.361.048,1.821,0,3.451-.048,4.122-.048v.239c-1.438.193-2.2.384-2.2,1.294a3.739,3.739,0,0,0,.383,1.487l6.949,15.624,5.943-12.461a11.729,11.729,0,0,0,1.39-4.122c0-1.055-.671-1.678-2.4-1.822v-.239c.671,0,1.677.048,3.787.048,1.581,0,2.731-.048,3.4-.048v.239c-1.726.336-2.444.816-5.224,6.71l-9.2,19.6c-1.246,2.636-1.726,4.17-1.726,5.128,0,1.295.815,1.486,1.917,1.725Z" fill="#fff"/>
          <path id="Path_47" data-name="Path 47" d="M513.828,426.726a8.871,8.871,0,0,1-1.2.048c-4.936-.191-5.559-.767-11.167-11.406-.575-1.055-1.629-3.451-2.683-4.362h-3.068v11.072c0,3.834.623,4.073,2.4,4.361v.239c-1.007-.048-2.54-.1-4.17-.1-1.773,0-3.115.047-4.17.1v-.239c1.774-.288,2.4-.527,2.4-4.361V396.34c0-3.212-.48-4.074-2.3-4.361v-.24c1.63.1,2.492.1,4.6.1,1.438,0,3.93-.1,4.985-.1,7.285,0,11.31,4.026,11.31,9.586,0,4.025-2.683,7.908-8.339,9.2,1.534,1.2,6.854,14.33,11.407,15.912ZM498.011,410c6.9,0,8.724-3.5,8.724-8.052,0-5.08-2.589-9.107-7.573-9.107a11.88,11.88,0,0,0-3.451.48V410Z" fill="#fff"/>
          <path id="Path_48" data-name="Path 48" d="M534.2,423.324a9.791,9.791,0,0,1-7.956,3.738c-7.716,0-11.406-5.848-11.406-11.694,0-6.567,4.313-11.79,10.208-11.79,4.84,0,8.819,3.45,8.819,8.482H518.81c-.048.48-.1,1.055-.1,1.63,0,7.62,3.978,11.79,9.442,11.79A7.9,7.9,0,0,0,534,423.131ZM529.929,411.1c-.191-4.361-2.012-6.9-4.984-6.9-2.924,0-5.32,2.731-6.039,6.9Z" fill="#fff"/>
          <path id="Path_49" data-name="Path 49" d="M550.25,423.276a5.648,5.648,0,0,1-5.512,3.786c-2.541,0-4.938-.527-4.938-5.7V406.741c0-2.014-.383-2.3-2.347-2.637v-.239c3.067,0,5.08-2.876,5.846-6.326h.288a39.008,39.008,0,0,0-.719,6.278h3.93c2.3,0,3.068,0,3.786-1.2l.289.287a14.374,14.374,0,0,0-1.966,3.4h-.383a1.718,1.718,0,0,0,.1-.527c0-.815-.671-1.007-2.3-1.007h-3.451v16.487c0,3.308.959,4.458,3.4,4.458a3.6,3.6,0,0,0,3.738-2.589Z" fill="#fff"/>
          <path id="Path_50" data-name="Path 50" d="M560.121,426.678c-1.055-.048-1.822-.1-3.595-.1s-2.54.047-3.595.1v-.239c1.439-.288,2.062-.527,2.062-4.361V407.459c0-1.725-.048-2.205-1.487-2.587v-.241a14.368,14.368,0,0,0,4.554-1.053v2.2a7.513,7.513,0,0,1,4.793-2.2c2.492,0,3.067,1.772,3.067,3.977h-3.067c0-1.773-.671-2.492-1.773-2.492-.767,0-1.726.335-3.02,1.821v15.194c0,3.834.623,4.073,2.061,4.361Z" fill="#fff"/>
          <path id="Path_51" data-name="Path 51" d="M587.821,423.324a9.791,9.791,0,0,1-7.956,3.738c-7.716,0-11.407-5.848-11.407-11.694,0-6.567,4.314-11.79,10.209-11.79,4.84,0,8.819,3.45,8.819,8.482h-15.05c-.048.48-.1,1.055-.1,1.63,0,7.62,3.978,11.79,9.442,11.79a7.9,7.9,0,0,0,5.847-2.349ZM583.555,411.1c-.191-4.361-2.013-6.9-4.984-6.9-2.924,0-5.321,2.731-6.039,6.9Z" fill="#fff"/>
          <path id="Path_52" data-name="Path 52" d="M610.825,424.618c-.719,1.15-1.774,2.444-3.451,2.444-1.726,0-2.684-1.294-2.684-3.02a10.326,10.326,0,0,1-7.142,3.02c-4.073,0-6.134-2.54-6.134-5.272,0-3.355,2.971-6.087,7.716-6.087a10.213,10.213,0,0,1,5.56,1.582v-8.1c0-3.019-1.15-4.745-4.361-4.745-2.589,0-5.416,1.917-5.56,6.039h-2.444a8.155,8.155,0,0,1,8.386-6.9c3.452,0,7.046,1.1,7.046,6.23v12.6c0,1.964.335,2.684,1.39,2.684a2.152,2.152,0,0,0,1.582-.72Zm-6.135-6.471a6.909,6.909,0,0,0-4.6-1.533,4.9,4.9,0,0,0-5.223,4.888,4.083,4.083,0,0,0,4.361,4.218,7.229,7.229,0,0,0,5.464-2.636Z" fill="#fff"/>
          <path id="Path_53" data-name="Path 53" d="M625.919,423.276a5.643,5.643,0,0,1-5.51,3.786c-2.541,0-4.938-.527-4.938-5.7V406.741c0-2.014-.383-2.3-2.347-2.637v-.239c3.067,0,5.08-2.876,5.846-6.326h.288a39,39,0,0,0-.719,6.278h3.93c2.3,0,3.068,0,3.786-1.2l.288.287a14.4,14.4,0,0,0-1.965,3.4H624.2a1.72,1.72,0,0,0,.1-.527c0-.815-.671-1.007-2.3-1.007h-3.451v16.487c0,3.308.959,4.458,3.4,4.458a3.6,3.6,0,0,0,3.738-2.589Z" fill="#fff"/>
        </g>
        <g id="Group_4" data-name="Group 4" style="isolation: isolate">
          <path id="Path_54" data-name="Path 54" d="M56.226,357.964,32.884,294.225c-2.287-6.1-4.1-6.478-7.813-7.145V286.6c2,.1,7.146.19,10.385.19,3.525,0,7.241-.094,9.337-.19v.477c-3.716.38-5.049,1.524-5.049,3.62a15.587,15.587,0,0,0,1.143,4.669l17.721,48.876L72.232,304.9c2.192-6.479,3.621-10.671,3.621-13.243,0-2.763-1.524-4-5.05-4.573V286.6c2.1.1,6.86.19,10.385.19,3.24,0,4.288-.094,6.289-.19v.477c-4.859,1.428-7.051,4.382-12.291,19.054L56.8,357.964Z" fill="#fff"/>
          <path id="Path_55" data-name="Path 55" d="M109.575,356.059c-2-.1-5.05-.19-8.289-.19-3.525,0-6.193.1-8.289.19v-.476c3.525-.572,4.764-1.048,4.764-8.67V295.75c0-7.623-1.239-8.1-4.764-8.67V286.6c2.1.1,4.764.19,8.289.19,3.239,0,6.288-.094,8.289-.19v.477c-3.525.571-4.764,1.047-4.764,8.67v51.163c0,7.622,1.239,8.1,4.764,8.67Z" fill="#fff"/>
          <path id="Path_56" data-name="Path 56" d="M160.64,343.578c-.1,8-.571,8.384-.571,12.577-8.861-.286-10.767-.286-19.627-.286-7.241,0-17.15.1-19.15.19v-.476c4.573-.762,5.43-2.192,5.43-8.67V295.75c0-7.623-1.239-8.1-4.764-8.67V286.6c2.1.1,4.764.19,8.29.19,3.239,0,6.288-.094,8.288-.19v.477c-3.525.571-4.764,1.047-4.764,8.67v56.689c1.049.381,3.621.571,8.1.571,14.863,0,16.864,0,18.293-9.432Z" fill="#fff"/>
          <path id="Path_57" data-name="Path 57" d="M207.8,343.578c-.1,8-.571,8.384-.571,12.577-8.861-.286-10.767-.286-19.627-.286-7.242,0-17.15.1-19.151.19v-.476c4.573-.762,5.431-2.192,5.431-8.67V295.75c0-7.623-1.239-8.1-4.764-8.67V286.6c2.1.1,4.764.19,8.289.19,3.24,0,6.288-.094,8.289-.19v.477c-3.525.571-4.764,1.047-4.764,8.67v56.689c1.048.381,3.621.571,8.1.571,14.863,0,16.864,0,18.293-9.432Z" fill="#fff"/>
          <path id="Path_58" data-name="Path 58" d="M268.767,356.059c-2-.1-5.05-.19-8.289-.19-3.525,0-6.384.1-8.48.19v-.476c3.144-.191,4.192-1.525,4.192-3.334a19.994,19.994,0,0,0-1.143-4.956l-5.621-17.911H238.469c-3.43,0-6.764,0-10.1.1l-5.717,15.435a21.427,21.427,0,0,0-1.619,6.479c0,2.192,1.143,3.811,4.382,4.192v.476c-2.1-.1-5.335-.19-8.86-.19-3.24,0-4.478.1-6.479.19v-.476c4.859-1.143,6.383-2.287,10.48-13.148l21.532-57.261h.953l20.008,63.263c1.906,6,2.1,6.669,5.717,7.146ZM239.8,298.417l-10.385,28.107c3.049.1,6,.1,9.051.1h10.1Z" fill="#fff"/>
          <path id="Path_59" data-name="Path 59" d="M341.454,343.578c-.1,8-.571,8.384-.571,12.577-8.861-.286-10.766-.286-19.627-.286-7.241,0-17.15.1-19.151.19v-.476c4.574-.762,5.431-2.192,5.431-8.67V295.75c0-7.623-1.239-8.1-4.764-8.67V286.6c2.1.1,4.764.19,8.289.19,3.24,0,6.289-.094,8.289-.19v.477c-3.525.571-4.764,1.047-4.764,8.67v56.689c1.048.381,3.621.571,8.1.571,14.863,0,16.864,0,18.293-9.432Z" fill="#fff"/>
          <path id="Path_60" data-name="Path 60" d="M366.411,356.059c-2-.1-5.049-.19-8.289-.19-3.525,0-6.193.1-8.289.19v-.476c3.525-.572,4.764-1.048,4.764-8.67V295.75c0-7.623-1.239-8.1-4.764-8.67V286.6c2.1.1,4.764.19,8.289.19,3.24,0,6.289-.094,8.289-.19v.477c-3.525.571-4.764,1.047-4.764,8.67v51.163c0,7.622,1.239,8.1,4.764,8.67Z" fill="#fff"/>
          <path id="Path_61" data-name="Path 61" d="M377.366,321.951c0-18.008,13.243-35.825,34.871-35.825,18.674,0,33.918,15.15,33.918,35.539,0,19.436-14.863,35.157-34.681,35.157C390.323,356.822,377.366,339.481,377.366,321.951Zm60.023.285c0-24.1-13.053-34.013-25.915-34.013-12.671,0-25.248,9.622-25.248,33.442,0,22.961,11.338,32.965,25.248,32.965C425.861,354.63,437.389,344.245,437.389,322.236Z" fill="#fff"/>
          <path id="Path_62" data-name="Path 62" d="M518.272,357.964l-54.116-60.213v8.574c0,47.638.094,47.066,6.574,49.258v.476c-2.1-.1-4.573-.19-8.1-.19-3.239,0-5.526.1-7.527.19v-.476c6.1-2.287,6.193-1.715,6.193-49.353V285.174h.667L515.89,345.1v-8.479c0-48.209-.285-47.448-6.573-49.543V286.6c2.1.1,4.573.19,8.1.19,3.24,0,5.907-.094,7.908-.19v.477c-6.384,2.1-6.574,1.334-6.574,48.971v21.913Z" fill="#fff"/>
          <path id="Path_63" data-name="Path 63" d="M586.577,357.964l-23.343-63.739c-2.286-6.1-4.1-6.478-7.813-7.145V286.6c2,.1,7.146.19,10.386.19,3.525,0,7.24-.094,9.337-.19v.477c-3.716.38-5.05,1.524-5.05,3.62a15.594,15.594,0,0,0,1.144,4.669l17.72,48.876L602.583,304.9c2.192-6.479,3.621-10.671,3.621-13.243,0-2.763-1.525-4-5.05-4.573V286.6c2.1.1,6.86.19,10.386.19,3.239,0,4.287-.094,6.288-.19v.477c-4.86,1.428-7.051,4.382-12.291,19.054l-18.388,51.83Z" fill="#fff"/>
          <path id="Path_64" data-name="Path 64" d="M639.925,356.059c-2-.1-5.05-.19-8.289-.19-3.525,0-6.192.1-8.289.19v-.476c3.526-.572,4.764-1.048,4.764-8.67V295.75c0-7.623-1.238-8.1-4.764-8.67V286.6c2.1.1,4.764.19,8.289.19,3.239,0,6.288-.094,8.289-.19v.477c-3.525.571-4.763,1.047-4.763,8.67v51.163c0,7.622,1.238,8.1,4.763,8.67Z" fill="#fff"/>
          <path id="Path_65" data-name="Path 65" d="M690.991,343.578c-.1,8-.572,8.384-.572,12.577-8.86-.286-10.766-.286-19.627-.286-7.241,0-17.149.1-19.15.19v-.476c4.573-.762,5.431-2.192,5.431-8.67V295.75c0-7.623-1.525-8-5.717-8.67V286.6c1.9.1,5.336.19,12.2.19,14.577,0,22.2,0,26.488-.19,0,.667.094,2.478.094,4a42.456,42.456,0,0,1-.571,7.812h-.477c0-8.479-2.954-8.765-16.959-8.765-5.335,0-6.574.19-8,.571v28.393c17.53,0,18.483-.191,19.912-7.336h.476c-.1,2.953-.19,4.954-.19,8.86,0,5.05.095,6.479.19,9.718h-.476c-1.429-8.193-2.382-8.384-19.912-8.384v30.965c1.047.381,3.62.571,8.1.571,14.863,0,16.864,0,18.293-9.432Z" fill="#fff"/>
          <path id="Path_66" data-name="Path 66" d="M753.3,357.964l-12.958-34.489L726.62,357.964h-.572l-23.629-63.739c-1.714-4.573-2.858-6.288-6.573-7.145V286.6c2,.1,5.906.19,9.147.19,3.524,0,6.382-.094,8.479-.19v.477c-3.144.38-4.192,1.524-4.192,3.62a15.587,15.587,0,0,0,1.143,4.669l18.007,48.5,10.2-25.058-9.242-24.581c-2.1-5.431-3.907-6.288-7.623-7.145V286.6c2,.1,6.574.19,9.814.19,3.525,0,5.812-.094,7.908-.19v.477c-2.858.38-3.811,1.524-3.811,3.239a15.952,15.952,0,0,0,1.333,5.05l5.432,14.005,1.81-4.478c2.381-5.812,3.906-10,3.906-12.957,0-2.764-1.429-4.383-4.764-4.859V286.6c2.1.1,7.528.19,11.052.19,3.24,0,4.288-.094,6.289-.19v.477c-4.765.952-6.955,2.477-13.529,19.054l-3.049,7.718,11.528,30.012L770.447,304.9c2.286-6,3.525-10,3.525-12.767,0-3.048-1.62-4.573-5.24-5.24V286.6c2.1.1,8.384.19,11.909.19,3.239,0,4.287-.094,6.288-.19v.286c-4.763,1.334-6.859,1.619-13.529,19.245l-19.531,51.83Z" fill="#fff"/>
        </g>
      </g>
      <g id="Layer_2" data-name="Layer 2">
        <g id="Group_5" data-name="Group 5" style="isolation: isolate">
          <path id="Path_67" data-name="Path 67" d="M384.689,138.384l-9.642-23.694c-.944-2.266-1.692-2.408-3.226-2.656v-.177c.826.036,2.951.071,4.289.071,1.456,0,2.991-.035,3.856-.071v.177c-1.534.142-2.085.567-2.085,1.346a5.334,5.334,0,0,0,.472,1.736l7.32,18.168,5.627-14.627c.9-2.408,1.5-3.967,1.5-4.923,0-1.026-.629-1.487-2.085-1.7v-.177c.866.036,2.833.071,4.289.071,1.338,0,1.771-.035,2.6-.071v.177c-2.007.531-2.912,1.63-5.076,7.084l-7.6,19.266Z" fill="#fff"/>
          <path id="Path_68" data-name="Path 68" d="M415.694,133.036c-.04,2.975-.236,3.116-.236,4.675-3.661-.106-4.448-.106-8.107-.106-2.991,0-7.083.035-7.91.07V137.5c1.889-.283,2.243-.814,2.243-3.223V115.257c0-2.833-.512-3.01-1.968-3.223v-.177c.867.036,1.968.071,3.424.071,1.338,0,2.6-.035,3.424-.071v.177c-1.456.213-1.968.39-1.968,3.223V136.33a14.709,14.709,0,0,0,3.345.212c6.14,0,6.966,0,7.556-3.506Z" fill="#fff"/>
          <path id="Path_69" data-name="Path 69" d="M426.12,138.384l-9.642-23.694c-.944-2.266-1.692-2.408-3.227-2.656v-.177c.827.036,2.952.071,4.29.071,1.456,0,2.991-.035,3.856-.071v.177c-1.534.142-2.086.567-2.086,1.346a5.314,5.314,0,0,0,.473,1.736l7.319,18.168,5.628-14.627c.9-2.408,1.5-3.967,1.5-4.923,0-1.026-.63-1.487-2.086-1.7v-.177c.866.036,2.834.071,4.29.071,1.338,0,1.771-.035,2.6-.071v.177c-2.007.531-2.912,1.63-5.076,7.084l-7.6,19.266Z" fill="#fff"/>
        </g>
      </g>
    </g>
  </g>
</svg>
